<?xml version="1.0" standalone="no"?>
<!DOCTYPE svg PUBLIC "-//W3C//DTD SVG 1.1//EN" "http://www.w3.org/Graphics/SVG/1.1/DTD/svg11.dtd" >
<svg xmlns="http://www.w3.org/2000/svg">
<metadata>Generated by IcoMoon</metadata>
<defs>
<font id="shanticon" horiz-adv-x="1024">
<font-face units-per-em="1024" ascent="960" descent="-64" />
<missing-glyph horiz-adv-x="1024" />
<glyph unicode="&#x20;" horiz-adv-x="512" d="" />
<glyph unicode="&#xe600;" glyph-name="agents" d="M512 959.872c-141.376 0-255.904-114.528-255.904-255.904s114.528-255.904 255.904-255.904c141.344 0 255.904 114.528 255.904 255.904s-114.56 255.904-255.904 255.904zM512 550.432c-84.8 0-153.536 68.704-153.536 153.536s68.736 153.536 153.536 153.536 153.536-68.704 153.536-153.536c0-84.8-68.736-153.536-153.536-153.536zM512 499.264c-197.888 0-358.272-170.72-358.272-381.312 0-244.672 716.512-240.832 716.512 0 0 210.592-160.352 381.312-358.24 381.312zM256.096 140.992c0 141.344 114.528 255.904 255.904 255.904s255.904-114.56 255.904-255.904c0-150.656-511.808-151.136-511.808 0z" />
<glyph unicode="&#xe601;" glyph-name="arrow-left_2" d="M304.992 94.016c24.288-27.328 63.68-27.328 87.968 0s24.288 71.552 0 98.848l-157.728 177.248h729.44c34.304 0 62.176 31.296 62.176 69.92 0 19.328-6.944 36.768-18.24 49.44-11.264 12.608-26.784 20.48-43.936 20.48h-729.44l157.728 177.28c24.288 27.264 24.288 71.52 0 98.816s-63.68 27.296-87.968 0l-307.84-346.048 307.84-345.984z" />
<glyph unicode="&#xe602;" glyph-name="arrow-left" d="M240.96 484.864h641.728v-229.344h141.312v267.552c0 52.768-53.952 95.552-120.512 95.552h-662.528v95.584l-240.96-162.432 240.928-152.896v85.984zM355.392 395.68h429.952v-98.72h-429.952v98.72z" />
<glyph unicode="&#xe603;" glyph-name="arrow-right_2" d="M719.008 785.984c-24.288 27.328-63.68 27.328-87.936 0-24.32-27.296-24.32-71.552 0-98.848l157.696-177.248h-729.44c-34.304 0-62.176-31.296-62.176-69.92 0-19.328 6.944-36.768 18.24-49.44 11.264-12.608 26.784-20.48 43.936-20.48h729.44l-157.696-177.248c-24.32-27.264-24.32-71.552 0-98.848 24.256-27.296 63.648-27.296 87.936 0l307.872 345.984-307.872 346.048z" />
<glyph unicode="&#xe604;" glyph-name="arrow-right" d="M775.68 684.8v0l245.728-153.6v-15.36l-3.36-3.392-242.368-150.208v84.48h-629.76v-222.72h-145.92v320.992l-0.288 18.72 8 21.504 19.808 7.296 748.16 0.128v92.16zM230.4 369.952h437.76v-107.52h-437.76v107.52z" />
<glyph unicode="&#xe605;" glyph-name="arrow3-down" d="M1010.4 633.76c0-17.504-7.584-35.040-22.816-48.416l-422.656-371.456c-14.624-12.8-34.464-20.064-55.072-20.064-20.672 0-40.512 7.264-55.040 20.032l-422.656 371.488c-30.4 26.72-30.4 70.016 0 96.768 30.432 26.688 79.68 26.688 110.112 0l367.584-323.136 367.616 323.136c30.4 26.752 79.712 26.752 110.112 0 15.168-13.376 22.816-30.848 22.816-48.352z" />
<glyph unicode="&#xe606;" glyph-name="arrow3-left" d="M680-33.152c-17.504 0-35.040 7.328-48.416 21.952l-371.488 406.304c-12.8 14.016-20.032 33.088-20.032 52.928s7.232 38.912 20 52.928l371.52 406.336c26.72 29.216 70.016 29.216 96.768 0 26.688-29.248 26.688-76.608 0-105.856l-323.072-353.44 323.104-353.376c26.752-29.216 26.752-76.608 0-105.856-13.376-14.592-30.88-21.92-48.384-21.92z" />
<glyph unicode="&#xe607;" glyph-name="arrow3-right" d="M295.424 929.184c17.504 0 35.040-7.328 48.416-21.952l371.456-406.336c12.8-14.048 20.064-33.12 20.064-52.928 0-19.872-7.264-38.912-20.032-52.928l-371.488-406.336c-26.72-29.216-70.016-29.216-96.768 0-26.688 29.248-26.688 76.608 0 105.856l323.104 353.44-323.104 353.376c-26.752 29.248-26.752 76.64 0 105.888 13.376 14.56 30.88 21.92 48.352 21.92z" />
<glyph unicode="&#xe608;" glyph-name="arrow3-up" d="M9.344 262.24c0 17.504 7.616 35.040 22.816 48.416l422.656 371.456c14.656 12.8 34.464 20.064 55.072 20.064 20.672 0 40.512-7.264 55.040-20.032l422.688-371.488c30.4-26.72 30.4-70.016 0-96.768-30.432-26.688-79.68-26.688-110.112 0l-367.616 323.104-367.616-323.104c-30.4-26.752-79.712-26.752-110.112 0-15.136 13.376-22.816 30.848-22.816 48.352z" />
<glyph unicode="&#xe609;" glyph-name="arrowselect" d="M512 128l-192 256h384l-192-256zM512 768l192-256h-384l192 256z" />
<glyph unicode="&#xe60a;" glyph-name="audio" horiz-adv-x="1184" d="M985.216 930.688l-64.544-61.728c112.352-108 181.856-256.736 181.856-420.992 0-164.32-69.6-312.992-181.856-420.992l64.544-61.696c129.44 123.552 209.44 294.24 209.44 482.72s-80 359.168-209.44 482.688zM860.288 808.672l-63.2-60.384c80-77.152 129.504-183.168 129.504-300.288s-49.504-223.136-129.504-300.288l63.2-60.32c96.16 92.544 155.68 219.904 155.68 360.608s-59.52 268.064-155.68 360.672zM733.92 687.968l-63.2-60.384c47.648-46.176 77.152-109.568 77.152-179.584s-29.472-133.376-77.216-179.616l63.2-60.32c63.904 61.6 103.392 146.4 103.392 239.968 0.032 93.568-39.456 178.336-103.296 239.968zM570.24 936.448c-13.216 8.032-29.152 6.432-41.12-3.968l-283.872-248.608h-164.256c-21.28 0-41.376-9.6-56.48-26.784-15.744-17.92-24.48-41.888-24.48-67.584v-282.976c0-25.696 8.736-49.76 24.416-67.488 15.136-17.312 35.296-26.88 56.544-26.88h164.256l283.872-248.608c6.912-5.984 15.072-9.088 23.296-9.088 6.048 0 12.192 1.76 17.824 5.152 13.28 8.032 21.6 24.224 21.6 41.984v892.768c0.032 17.792-8.288 34.080-21.536 42.112zM512.928 94.56l-231.456 202.848c-6.816 5.92-14.944 9.12-23.328 9.12h-179.232v141.44l2.048 141.536h177.184c8.416 0 16.512 3.2 23.296 9.12l231.52 202.752v-706.816z" />
<glyph unicode="&#xe60b;" glyph-name="logo-shanti" d="M511.856 22.704c-15.168 0-30.568 1.84-45.92 5.84-47.72 12.248-87.776 42.424-112.872 84.848l-50.248 85.072 163.952 96.576c21.544 11.080 46.096 13.904 69.72 7.752 25.544-6.576 47-22.672 60.424-45.4 13.408-22.752 17.184-49.304 10.576-74.872-6.576-25.52-22.672-47.024-45.392-60.4-22.736-13.424-49.312-17.168-74.864-10.624-25.512 6.624-47 22.752-60.424 45.456l-30.672 51.92-40.672-24 30.696-51.92c19.824-33.576 51.552-57.456 89.304-67.2 77.928-20 157.688 27.048 177.8 105 9.704 37.8 4.128 77.048-15.704 110.624l-94.576 160.176 33.080 19.576 94.592-160.168c25.080-42.432 32.112-92.080 19.832-139.808-21.424-83.152-96.512-138.496-178.672-138.496l0.040 0.048zM429.288 228.456l30.696-51.952c8.176-13.904 21.28-23.752 36.872-27.752 32.176-8.248 65.176 11.152 73.504 43.376 4 15.592 1.672 31.84-6.496 45.752-8.2 13.872-21.296 23.672-36.888 27.672-15.536 4-31.68 1.752-45.56-6.344l-52.128-30.752zM761.528 238.84l-96.56 163.928c-11.112 21.52-13.872 46.128-7.752 69.752 13.56 52.728 67.512 84.624 120.248 71.024 52.72-13.576 84.592-67.528 71.016-120.256-6.576-25.544-22.704-47.024-45.392-60.424l-51.984-30.672 24.048-40.704 51.936 30.704c33.592 19.84 57.44 51.544 67.144 89.344 9.736 37.752 4.16 77.048-15.672 110.632-19.832 33.6-51.544 57.424-89.296 67.168-37.8 9.704-77.048 4.128-110.624-15.696l-160.176-94.568-19.552 33.072 160.184 94.6c42.392 25.048 92.096 32.096 139.768 19.8 47.704-12.28 87.784-42.4 112.856-84.776 25.016-42.448 32.064-92.072 19.768-139.776-12.264-47.752-42.376-87.8-84.84-112.8l-85.12-50.352zM703.44 412.872l28.128-47.6 51.92 30.696c13.872 8.176 23.736 21.28 27.752 36.872 8.296 32.256-11.168 65.176-43.376 73.504-32.144 8.248-65.144-11.168-73.456-43.4-4-15.52-1.752-31.696 6.328-45.496l2.672-4.576h0.032zM271.464 263.624c-15.424 0-30.976 1.92-46.304 5.872-47.696 12.296-87.776 42.4-112.848 84.8-25.024 42.456-32.080 92.104-19.752 139.776 12.248 47.728 42.4 87.776 84.824 112.824l85.072 50.248 96.552-163.928c11.096-21.52 13.896-46.072 7.776-69.72-13.552-52.704-67.504-84.656-120.248-71-52.72 13.624-84.6 67.52-71.048 120.224 6.576 25.552 22.704 47.024 45.424 60.424l51.952 30.696-24 40.672-51.92-30.696c-33.6-19.848-57.456-51.552-67.152-89.304-9.72-37.776-4.176-77.072 15.672-110.648 19.824-33.576 51.552-57.376 89.304-67.104 37.8-9.728 77.048-4.152 110.624 15.68l160.216 94.568 19.536-33.072-160.176-94.592c-28.752-17-60.904-25.696-93.48-25.696l-0.024-0.024zM292.432 530.752l-51.976-30.696c-13.896-8.176-23.728-21.304-27.728-36.904-4-15.624-1.72-31.848 6.48-45.696 8.2-13.904 21.272-23.752 36.928-27.752 32.096-8.248 65.152 11.168 73.424 43.392 4 15.504 1.752 31.68-6.344 45.504l-30.752 52.152h-0.032zM447.784 434.872l-94.568 160.2c-25.080 42.4-32.112 92.072-19.832 139.776 12.272 47.704 42.4 87.776 84.832 112.848 42.448 25.024 92.096 32.072 139.768 19.776 47.752-12.272 87.832-42.376 112.872-84.848l50.248-85.072-163.944-96.552c-21.544-11.104-46.048-13.904-69.72-7.776-52.72 13.552-84.624 67.504-71.024 120.248 13.552 52.728 67.48 84.672 120.248 71.048 25.56-6.6 47-22.72 60.408-45.448l30.704-51.928 40.704 24-30.688 51.928c-19.84 33.6-51.56 57.448-89.312 67.152-77.912 20.048-157.704-27-177.808-104.976-9.728-37.8-4.152-77.048 15.648-110.624l94.6-160.176-33.136-19.576zM512.008 749.2c-26.848 0-51.424-18.128-58.456-45.328-8.248-32.176 11.224-65.128 43.456-73.424 15.52-3.976 31.672-1.752 45.504 6.352l52.144 30.752-30.672 51.976c-8.2 13.848-21.264 23.696-36.92 27.752-5.032 1.28-10.048 1.872-15.024 1.872l-0.032 0.048zM512.136-64c-22.752 0-45.528 2.872-67.728 8.624-110.944 28.52-190.344 121.328-202.096 233.832-13.024 1.344-26 3.752-38.776 7.016-144.752 37.248-232.2 185.328-194.952 330.080 28.576 110.952 121.352 190.344 233.824 202.072 1.4 13.024 3.776 26.024 7.048 38.8 30.832 119.848 138.704 203.576 262.328 203.576 22.744 0 45.528-2.872 67.744-8.6 110.944-28.6 190.312-121.352 202.080-233.848 13.112-1.424 26.048-3.752 38.8-7.024 70.112-18.048 129-62.328 165.832-124.672 36.832-62.328 47.16-135.296 29.112-205.392-28.56-110.952-121.36-190.328-233.816-202.056-1.392-13.056-3.752-26.056-7.016-38.848-30.856-119.8-138.736-203.52-262.352-203.52l-0.032-0.040zM279.608 701.152l3.872-19.672-22.344-1c-103.048-4.384-189.576-74.504-215.32-174.504-31.984-124.176 43.040-251.272 167.32-283.256 15.8-4.072 31.928-6.472 48-7.168l18.344-0.8v-18.408c4.4-102.216 74.496-188.8 174.48-214.472 19.096-4.92 38.64-7.408 58.168-7.408 106.048 0 198.632 71.784 225.128 174.68 4.048 15.728 6.472 31.896 7.168 48l0.784 17.6 17.56 0.752c103.064 4.4 189.576 74.496 215.328 174.496 15.504 60.176 6.624 122.8-24.968 176.304-31.608 53.504-82.16 91.504-142.36 107-15.672 4.048-31.872 6.472-48.016 7.224l-17.544 0.824-0.752 17.552c-4.44 103.024-74.528 189.552-174.528 215.28-19.072 4.92-38.616 7.424-58.144 7.424-106.056 0-198.624-71.824-225.128-174.72-3.872-15.024-6.248-30.424-7.072-45.728h0.024z" />
<glyph unicode="&#xe60c;" glyph-name="calendar" d="M487.232 363.296v-264.032h81.984v398.56h-70.784l-1.792-16.128c-2.368-21.184-8.608-35.456-17.792-41.056-11.776-6.912-29.024-10.4-51.36-10.4l-22.528 0.256v-67.232h82.272zM18.656 851.52v-915.52h985.696v915.52h-985.696zM945.184-10.24h-867.36v609.056h867.424v-609.056h-0.064zM77.824 654.688v143.072h867.424v-143.072h-867.424zM123.264 961.088h72.896v-109.568h-72.896v109.568zM822.656 961.12h72.896v-109.568h-72.896v109.568z" />
<glyph unicode="&#xe60d;" glyph-name="cancel" d="M512 960c-282.784 0-512-229.216-512-512s229.216-512 512-512 512 229.216 512 512-229.216 512-512 512zM768 613.504l-165.504-165.504 165.504-165.504v-90.496h-90.496l-165.504 165.504-165.504-165.504h-90.496v90.496l165.504 165.504-165.504 165.504v90.496h90.496l165.504-165.504 165.504 165.504h90.496v-90.496z" />
<glyph unicode="&#xe60e;" glyph-name="check" d="M879.456 824.928l137.344-117.536c8.256-7.136 9.76-20.32 2.656-28.96l-590.24-718.272c-4.64-5.696-11.104-8.096-17.376-7.264-4.416 0.16-8.768 1.824-12.416 4.928l-388.832 333.248c-8.672 7.328-10.176 20.672-3.008 29.44l114.848 139.744c6.944 8.416 20.096 9.6 28.96 2.048l236.864-202.944 462.784 563.264c7.616 9.152 19.904 9.696 28.416 2.304z" />
<glyph unicode="&#xe60f;" glyph-name="close2" d="M512 960c-282.752 0-512-228.32-512-510.016s229.248-510.016 512-510.016c282.784 0 512 228.32 512 510.016s-229.216 510.016-512 510.016zM512 25.984c-244.672 0-425.984 178.24-425.984 422.016 0 243.712 181.312 425.984 425.984 425.984s425.984-180.288 425.984-424c0-243.712-181.312-424-425.984-424zM700.864 686.304l-187.52-186.912-168.288 186.912c-13.344 13.28-34.976 13.28-48.288 0s-13.344-34.816 0-48.064l168.32-186.944-190.272-189.472c-13.28-13.248-13.28-34.816 0-48.064 13.344-13.312 34.976-13.312 48.288 0l187.68 186.88 168.352-186.88c13.312-13.312 35.008-13.312 48.256 0 13.312 13.248 13.312 34.816 0 48.064l-168.48 186.848 190.304 189.536c13.312 13.28 13.312 34.784 0 48.064-13.344 13.28-34.976 13.28-48.352 0.032z" />
<glyph unicode="&#xe610;" glyph-name="close2b" d="M700.864 686.304l-187.52-186.912-168.288 186.912c-13.344 13.28-34.976 13.28-48.288 0s-13.344-34.816 0-48.064l168.32-186.944-190.272-189.472c-13.28-13.248-13.28-34.816 0-48.064 13.344-13.312 34.976-13.312 48.288 0l187.68 186.88 168.352-186.88c13.312-13.312 35.008-13.312 48.256 0 13.312 13.248 13.312 34.816 0 48.064l-168.48 186.848 190.304 189.536c13.312 13.28 13.312 34.784 0 48.064-13.344 13.28-34.976 13.28-48.352 0.032z" />
<glyph unicode="&#xe611;" glyph-name="community" d="M698.656 893.344c-77.056 0-143.296-46.784-171.712-113.504 26.24-2.144 50.816-9.536 72.928-21.44 18.72 35.648 55.68 60.256 98.784 60.256 61.856 0 112-50.112 112-112s-50.144-112-112-112c0-25.984-5.376-50.656-14.944-73.184 5.024-0.416 9.856-1.504 14.944-1.504 103.136 0 186.688 83.552 186.688 186.656s-83.552 186.72-186.688 186.72zM213.344 706.688c0 61.888 50.144 112 112 112 43.072 0 80.032-24.608 98.784-60.256 22.080 11.904 46.656 19.296 72.928 21.44-28.48 66.72-94.656 113.504-171.744 113.504-103.072 0-186.656-83.552-186.656-186.656s83.584-186.656 186.656-186.656c5.12 0 9.952 1.088 14.944 1.504-9.536 22.528-14.944 47.2-14.944 73.184-61.856-0.064-111.968 50.048-111.968 111.936zM599.872 758.432c-22.080 11.904-46.688 19.296-72.928 21.44-4.992 0.416-9.824 1.472-14.944 1.472s-9.952-1.088-14.944-1.504c-26.272-2.144-50.848-9.536-72.928-21.44-58.56-31.488-98.784-92.64-98.784-163.744 0-25.984 5.376-50.656 14.944-73.184 28.48-66.72 94.656-113.472 171.744-113.472s143.296 46.752 171.712 113.472c9.568 22.528 14.944 47.2 14.944 73.184-0.032 71.136-40.288 132.256-98.816 163.776zM610.816 542.944c-18.752-35.648-55.712-60.256-98.816-60.256-43.072 0-80.032 24.608-98.784 60.256-8.192 15.52-13.216 32.96-13.216 51.744 0 12.16 2.432 23.616 6.016 34.592 5.312 16.16 13.824 30.816 25.312 42.816 20.384 21.248 48.896 34.592 80.672 34.592s60.32-13.344 80.672-34.592c11.456-12 20-26.656 25.312-42.816 3.584-10.976 6.016-22.432 6.016-34.592 0-18.784-5.024-36.224-13.184-51.744zM960 279.232c0 153.6-116.992 278.144-261.344 278.144-86.24 0-113.152-95.584-210.080-113.28 7.712 0.704 15.52 1.28 23.424 1.28 22.464 0 44.032-3.328 64.8-8.96 32.736 28.448 75.040 46.304 121.856 46.304 103.136 0 186.688-83.552 186.688-186.656 0-40.896-51.776-66.624-116.672-77.088 2.976-16.832 4.672-34.016 4.672-51.712 0-5.44-0.544-10.752-1.504-15.872 102.176 13.76 188.16 56.608 188.16 127.84zM255.232 218.88c-64.896 10.432-116.544 36.096-116.544 77.152 0 103.104 83.584 186.656 186.656 186.656 46.848 0 89.184-17.888 121.952-46.368 13.408 3.648 27.136 6.432 41.248 7.776 7.776 0.704 15.584 1.28 23.488 1.28 8.064 0 15.904-0.896 23.776-1.696-111.744 9.984-124 113.696-210.464 113.696-144.352-0.032-261.344-124.544-261.344-278.144 0-72.384 86.016-114.976 188.224-128.288-0.992 5.248-1.568 10.688-1.568 16.288 0 17.664 1.6 34.848 4.576 51.648zM768.672 218.944c-18.816 106.272-94.272 190.912-191.84 217.44-13.312 3.616-27.072 5.824-41.056 7.296-7.872 0.768-15.68 1.696-23.744 1.696-7.904 0-15.712-0.544-23.424-1.28-14.144-1.344-27.904-4.096-41.248-7.776-97.6-26.496-173.28-111.2-192.032-217.44-3.008-16.768-4.608-33.984-4.608-51.648 0-5.6 0.576-11.040 1.568-16.32 29.792-156.64 490.112-154.208 519.616 0.448 0.96 5.12 1.504 10.432 1.504 15.872-0.064 17.664-1.792 34.848-4.736 51.712zM325.344 184.032c0 103.104 83.616 186.656 186.656 186.656 103.104 0 186.656-83.552 186.656-186.656 0-109.92-373.312-110.304-373.312 0z" />
<glyph unicode="&#xe612;" glyph-name="create" d="M348.8 720c110.528-8.544 219.136-0.992 326.4-6.816 0-18.112 0-83.84 0-102.016-108.8 0-217.632 0-326.4 0 0 36.256 0 72.576 0 108.832zM131.232 937.6c0-326.368 0-652.8 0-979.2 253.824 0 507.744 0 761.6 0 0 326.368 0 652.8 0 979.2-253.856 0-507.808 0-761.6 0zM784 67.2c-181.312 0-362.688 0-544 0 0 108.8 0 217.6 0 326.4 181.312 0 362.688 0 544 0 0-108.832 0-217.6 0-326.4zM784 502.4c-181.312 0-362.688 0-544 0 0 108.768 0 217.6 0 326.368 181.312 0 362.688 0 544 0 0-108.768 0-217.568 0-326.368zM348.8 284.768c105.408-8 214.208-3.296 326.4-6.784 0-18.176 0-83.84 0-102.016-108.8 0-217.632 0-326.4 0 0 36.256 0 72.608 0 108.8z" />
<glyph unicode="&#xe613;" glyph-name="directions" d="M460.8 960h102.4v-1024h-102.4v1024zM204.8 857.6l-153.6-153.6 153.6-153.6h614.4v307.2h-614.4zM716.8 652.8h-460.8l-51.2 51.2 51.2 51.2h460.8v-102.4zM819.2 499.2h-614.4v-307.2h614.4l153.632 153.6-153.632 153.6zM768 294.4h-460.8v102.4h460.8l51.2-51.232-51.2-51.168z" />
<glyph unicode="&#xe614;" glyph-name="disc" d="M1014.048 954.016c-329.248 0-681.184 0-1010.464 0-0.832-56.256-0.48-163.136-0.48-241.728 0-161.088 0-322.304 0-483.456 0-91.328 1.952-215.008-3.104-277.824 225.28 0 466.816-2.048 692.032-2.048 101.504 0 244.16-4.16 325.056-0.192 0 224.736-0.096 462.464-0.096 687.2 0 99.328 0.576 237.792-2.944 318.048zM380.096 890.432c34.656 0 69.344 0 104 0 0-46.688 0-93.344 0-140-34.656 0-69.344 0-104 0 0 46.688 0 93.312 0 140zM744.064 12.64c-160.352 0-320.64 0-480.96 0 0 114.496 0 228.992 0 343.424 160.352 0 320.64 0 480.96 0 0-114.432 0-228.928 0-343.424zM952.064 12.64c-47.68 0-95.328 0-143.040 0 0.704 122.976 4.448 295.392 1.056 407.232-129.984 0-274.080-0.096-404.032-0.096-69.888 0-152.8 0.896-207.84 1.76 0-131.456-0.128-277.472-0.128-408.864-43.328 0-86.688 0-129.984 0 0 292.608 0 585.248 0 877.824 82.272 0 164.672 0 246.944 0 0-59.36 0-118.784 0-178.144 134.336 0 268.64 0 402.976 0 0 59.36 0 118.784 0 178.144 78.016 0 156 0 233.984 0 0.064-292.64 0.064-585.28 0.064-877.856z" />
<glyph unicode="&#xe615;" glyph-name="disc2" d="M0 928c0-341.312 0-682.688 0-1024 341.312 0 682.688 0 1024 0 0 341.312 0 682.688 0 1024-341.312 0-682.688 0-1024 0zM224 864c192 0 384 0 576 0 0-42.656 0-85.344 0-128-192 0-384 0-576 0 0 42.656 0 85.344 0 128zM224 672c192 0 384 0 576 0 0-53.344 0-106.656 0-160-192 0-384 0-576 0 0 53.344 0 106.656 0 160zM480-32c-53.344 0-106.656 0-160 0 0 74.656 0 149.344 0 224 53.344 0 106.656 0 160 0 0-74.656 0-149.344 0-224zM960-32c-64 0-128 0-192 0 0 96 0 192 0 288-170.656 0-341.344 0-512 0 0-96 0-192 0-288-64 0-128 0-192 0 0 298.624 0 597.344 0 896 32 0 64 0 96 0 0-138.656 0-277.344 0-416 234.656 0 469.376 0 704 0 0 138.656 0 277.344 0 416 32 0 64 0 96 0 0-298.656 0-597.376 0-896z" />
<glyph unicode="&#xe616;" glyph-name="download" d="M-7.072 976.096c338.752 0 677.632 0 1016.384 0 0-230.208 0-460.512 0-690.752-120.96 0-241.984 0-362.976 0 0 23.872 0 47.616 0 71.424 96.768 0 193.6 0 290.432 0 0 182.656 0 365.28 0 547.872-290.432 0-580.928 0-871.264 0 0-182.592 0-365.216 0-547.872 96.768 0 193.568 0 290.368 0 0-23.808 0-47.552 0-71.424-120.992 0-241.984 0-362.976 0 0.032 230.24 0.032 460.576 0.032 690.752zM501.152-59.36l-165.952 237.056h105.6l2.080 597.024h118.144l0.512-597.024h105.568z" />
<glyph unicode="&#xe617;" glyph-name="editor" d="M951.456 771.552l-181.632 188.448-112.512-102.784-276.736-265.536v-274.144h268.096l91.904 91.264 283.424 280.128-72.544 82.624zM614.016 394.624h-152.16v164.96l193.216 186.144 51.136-54.080-179.744-176.608 51.744-53.952 172.48 167.584 10.784 10.080 50.048-53.504-197.504-190.624zM925.024 695.104v0 0l-50.464-47.904-156.864 158.816 49.792 49.312 157.536-160.224zM0 685.888c103.776 0 207.616 0 311.328 0 0-28.544 0-57.12 0-85.664-103.744 0-207.552 0-311.328 0 0 28.544 0 57.12 0 85.664zM0 540.256c103.776 0 207.616 0 311.328 0 0-28.576 0-57.152 0-85.696-103.744 0-207.552 0-311.328 0 0 28.576 0 57.12 0 85.696zM0 403.136c103.776 0 207.616 0 311.328 0 0-28.448 0-57.056 0-85.632-103.744 0-207.552 0-311.328 0 0 28.544 0 57.184 0 85.632zM0 257.504c187.36 0 374.816 0 562.24 0 0-28.448 0-56.992 0-85.632-187.424 0-374.88 0-562.24 0 0 28.64 0 57.184 0 85.632zM0 111.936c187.36 0 374.816 0 562.24 0 0-28.576 0-57.056 0-85.632-187.424 0-374.88 0-562.24 0 0 28.576 0 57.056 0 85.632z" />
<glyph unicode="&#xe618;" glyph-name="essays" d="M307.2 755.2v-819.2h665.6v819.2h-665.6zM870.4 38.4h-460.8v614.4h460.8v-614.4zM51.2 960v-819.2h665.6v819.2h-665.6zM614.4 243.2h-460.8v614.4h460.8v-614.4z" />
<glyph unicode="&#xe619;" glyph-name="events" d="M828.8 704v204.8h-102.432v-204.8h-460.768v204.8h-102.4v-204.8h-102.4v-716.8h870.4v716.8h-102.4zM844.096 622.048v-245.728h-184.256v245.728h184.256zM588.192 622.048v-245.728h-184.32v245.728h184.32zM588.192 314.88v-245.728h-184.32v245.728h184.32zM147.84 622.048h184.32v-245.728h-184.32v245.728zM147.84 314.88h184.32v-245.728h-184.32v245.728zM659.84 69.152v245.728h184.256v-245.728h-184.256z" />
<glyph unicode="&#xe61a;" glyph-name="explore" horiz-adv-x="1184" d="M752.416 960l-336.864-219.424-280.704 219.424v-804.576l280.704-219.424 336.864 219.424 280.704-219.424v804.576l-280.704 219.424zM443.648 677.088l280.704 182.848v-640.992l-280.704-182.848v640.992zM191.008 830.848l196.512-153.632v-634.016l-196.512 153.632v634.016zM976.992 65.216l-196.512 153.568v633.92l196.512-153.568v-633.92z" />
<glyph unicode="&#xe61b;" glyph-name="grid" d="M128 832c104 0 208 0 312 0 0-104 0-208 0-312-104 0-208 0-312 0 0 104 0 208 0 312zM584 832c103.968 0 208.032 0 312 0 0-104 0-208 0-312-103.968 0-208.032 0-312 0 0 104 0 208 0 312zM128 376c104 0 208 0 312 0 0-103.968 0-208.032 0-312-104 0-208 0-312 0 0 103.968 0 208.032 0 312zM584 376c103.968 0 208.032 0 312 0 0-103.968 0-208.032 0-312-103.968 0-208.032 0-312 0 0 103.968 0 208.032 0 312z" />
<glyph unicode="&#xe61c;" glyph-name="hourglass" d="M677.952 448c101.664 95.616 209.76 240.288 221.376 418.848 1.344 20.224-1.024 40.256-3.104 59.84h-796.864c-2.048-19.584-5.376-39.712-3.104-59.84 20.608-184.192 108.416-315.36 216-418.848-106.432-99.136-195.36-234.688-216-418.88-2.272-20.128 1.056-40.256 3.104-59.808h796.832c2.048 19.552 3.104 39.552 3.104 59.808-20.576 182.304-97.888 337.248-221.344 418.88zM182.304 29.12c18.816 174.88 90.496 307.616 200.736 376.8v83.488c-108.416 68-185.504 200.736-200.736 377.44v0h630.976c-11.648-174.848-95.904-300.128-200.736-382.4v-83.456c122.784-62.368 190.912-204.512 200.736-371.872h-630.976zM594.24 300.64c-64.224 38.048-67.744 87.328-67.776 117.248v60.064c0 29.92 3.392 79.36 67.904 117.504 34.496 20.896 64.352 52.672 86.976 91.936h-367.104c22.624-39.328 52.544-71.104 87.104-92 64.224-38.016 67.744-87.328 67.776-117.216v-60.064c0-29.888-3.392-79.392-67.904-117.504-65.088-39.424-113.6-117.504-128.256-211.552h449.664c-14.688 94.080-63.232 172.192-128.384 211.584z" />
<glyph unicode="&#xe61d;" glyph-name="link-external" horiz-adv-x="1088" d="M396.8 870.4v-217.6h-268.8v-422.4l-2.304-151.104v-4.256l168.704 1.76h409.6v166.4h256v627.2h-563.2zM870.4 332.8c-85.344 0-170.656 0-256 0 0-55.456 0-110.944 0-166.4-132.256 0-264.544 0-396.8 0 0 132.256 0 264.544 0 396.8 89.6 0 179.2 0 268.8 0 0 72.544 0 145.056 0 217.6 128 0 256 0 384 0 0-149.28 0-298.656 0-448zM400.416 244.704v0 0 0l-71.296 73.824 283.104 270.816-77.024 78.624 233.056 2.944 0.32-241.28-86.944 83.104-281.216-268z" />
<glyph unicode="&#xe61e;" glyph-name="list" d="M64 896h224v-224h-224v224zM400 840h560v-112h-560v112zM64 560h224v-224h-224v224zM400 504h560v-112h-560v112zM64 224h224v-224h-224v224zM400 168h560v-112h-560v112z" />
<glyph unicode="&#xe61f;" glyph-name="list2" d="M384 896h640v-128h-640v128zM384 512h640v-128h-640v128zM384 128h640v-128h-640v128zM0 832c0 70.688 57.312 128 128 128s128-57.312 128-128-57.312-128-128-128-128 57.312-128 128zM0 448c0 70.688 57.312 128 128 128s128-57.312 128-128-57.312-128-128-128-128 57.312-128 128zM0 64c0 70.688 57.312 128 128 128s128-57.312 128-128-57.312-128-128-128-128 57.312-128 128z" />
<glyph unicode="&#xe620;" glyph-name="list4" d="M268.128 312.544c0-52.288-42.368-94.656-94.656-94.656s-94.656 42.368-94.656 94.656c0 52.288 42.368 94.656 94.656 94.656s94.656-42.368 94.656-94.656zM291.968 82.304h654.912v-94.56h-654.912v94.56zM268.256 34.976c0-52.256-42.432-94.624-94.784-94.624s-94.784 42.368-94.784 94.624c0 52.256 42.432 94.624 94.784 94.624s94.784-42.368 94.784-94.624zM268.256 590.112c0-52.256-42.432-94.624-94.784-94.624s-94.784 42.368-94.784 94.624c0 52.256 42.432 94.624 94.784 94.624s94.784-42.368 94.784-94.624zM291.968 637.44h654.912v-94.656h-654.912v94.656zM291.968 359.872h654.912v-94.624h-654.912v94.624zM291.968 904.32h654.912v-94.624h-654.912v94.624zM268.256 857.024c0-52.256-42.432-94.624-94.784-94.624s-94.784 42.368-94.784 94.624c0 52.256 42.432 94.624 94.784 94.624s94.784-42.368 94.784-94.624z" />
<glyph unicode="&#xe621;" glyph-name="lock-open" d="M920.32 578.112h-418.304v127.264c0 140.64-112.384 254.624-251.008 254.624-138.656 0-251.008-113.984-251.008-254.624v-169.76c0-23.392 18.72-42.432 41.856-42.432 23.072 0 41.824 19.040 41.824 42.432v169.76c0 93.76 74.912 169.728 167.328 169.728s167.328-75.968 167.328-169.728v-127.296c-46.208 0-83.648-38.016-83.648-84.864v-424.416c0-46.816 37.44-84.832 83.648-84.832h501.984c46.208 0 83.68 38.016 83.68 84.832v424.448c0 46.848-37.472 84.864-83.68 84.864zM920.32 68.832h-501.984v424.384h501.984v-424.384zM627.488 250.368v-54.208c0-23.36 18.752-42.4 41.824-42.4 23.104 0 41.888 19.040 41.888 42.4v54.208c24.864 14.752 41.824 41.76 41.824 73.088 0 46.944-37.472 84.896-83.68 84.896s-83.616-37.984-83.616-84.896c-0.032-31.328 16.896-58.336 41.76-73.088z" />
<glyph unicode="&#xe622;" glyph-name="lock" d="M820.992 562.016v132c0 145.792-127.584 264-284.992 264s-284.992-118.208-284.992-264v-131.968c-52.48 0-95.008-39.392-95.008-88v-440c0-48.64 42.528-88.032 95.008-88.032h569.984c52.448 0 95.008 39.392 95.008 88.032v440c0 48.576-42.56 87.968-95.008 87.968zM345.984 694.016c0 97.216 85.088 176 190.016 176s190.016-78.784 190.016-176v-131.968h-380.032v131.968zM820.992 34.016h-569.984v440h569.984v-440zM488.512 222.176v-56.16c0-24.32 21.28-44.032 47.488-44.032s47.488 19.712 47.488 44.032v56.16c28.288 15.264 47.488 43.328 47.488 75.776 0 48.64-42.56 88.064-95.008 88.064s-95.008-39.424-95.008-88.064c0.032-32.416 19.296-60.512 47.552-75.776z" />
<glyph unicode="&#xe623;" glyph-name="magnify" d="M684 831.744c-156.128 152.896-410.24 152.896-566.4 0-156.096-152.896-156.096-401.664 0-554.592 139.072-136.128 355.616-150.656 511.648-44.416 3.296-15.232 10.88-29.696 22.912-41.536l227.36-222.592c33.088-32.384 86.656-32.384 119.68 0 33.024 32.352 33.024 84.8 0 117.12l-227.456 222.656c-12.032 11.776-26.88 19.2-42.368 22.336 108.64 152.864 93.728 364.8-45.376 501.024zM612.256 347.456c-116.608-114.080-306.304-114.080-422.848 0-116.512 114.112-116.512 299.808 0 413.952 116.544 114.112 306.24 114.112 422.848 0 116.544-114.112 116.544-299.808 0-413.952z" />
<glyph unicode="&#xe624;" glyph-name="map-marker" horiz-adv-x="608" d="M298.656 960c-166.4 0-298.656-132.256-298.656-298.656 0-256 298.656-725.344 298.656-725.344s298.656 473.6 298.656 725.344c0 166.4-132.256 298.656-298.656 298.656zM298.656 576c-46.944 0-85.344 38.4-85.344 85.344s38.4 85.344 85.344 85.344c46.944 0 85.344-38.4 85.344-85.344s-38.4-85.344-85.344-85.344z" />
<glyph unicode="&#xe625;" glyph-name="uniE626" d="M583.52 752.928v-764.64l57.088-27.904 351.392 150.688v816.928l-408.48-175.072zM875.296 197.984l-175.072-86.912v550.72l175.072 91.136v-554.944zM352.576 901.952l-60.8-25.632v-765.248l352.512-151.136 55.936 24.576v768.416l-347.648 149.024zM583.52 111.072l-175.072 89.12v552.736l175.072-88.928v-552.928zM351.744 903.648l-351.744-150.72v-816.928l408.48 175.072v769.888l-56.736 22.688zM291.776 204.16l-175.072-93.088v555.904l175.072 85.952v-548.768z" />
<glyph unicode="&#xe626;" glyph-name="menu" d="M0 576h704v-128h-704v128zM0 768h704v-128h-704v128zM0 384h704v-128h-704v128zM0 192h704v-128h-704v128zM768 384l128-192 128 192h-256zM1024 448l-128 192-128-192h256z" />
<glyph unicode="&#xe627;" glyph-name="menu3" d="M64 144v128h896v-128h-896zM64 656v128h896v-128h-896zM64 400v128h896v-128h-896z" />
<glyph unicode="&#xe628;" glyph-name="multiply" d="M896.864 962.496l-384.352-385.824-379.872 381.344-127.136-127.68 379.84-381.376-375.328-376.8 127.136-127.584 375.36 376.768 379.872-381.344 127.072 127.744-379.776 381.216 384.32 385.888z" />
<glyph unicode="&#xe629;" glyph-name="overview" d="M64 176v128h896v-128h-896zM64 624v128h896v-128h-896z" />
<glyph unicode="&#xe62a;" glyph-name="images" d="M979.584 240c28.32 63.584 44.416 133.888 44.416 208 0 282.72-229.184 512-512 512-282.784 0-512-229.28-512-512 0-282.816 229.216-512 512-512 204.096 0 379.744 119.648 462.016 292.416l8.608 8.608-3.040 2.976zM648.192 345.6h-154.336l-161.12 161.152 43.072 43.648h148.576l164.032-164.064-40.224-40.736zM102.4 448c0 43.52 6.912 85.408 19.488 124.736l227.136-227.168h-233.184c-8.48 32.8-13.44 67.008-13.44 102.432zM669.248 550.4h238.912c8.48-32.768 13.44-66.976 13.44-102.4 0-45.088-7.552-88.384-21.024-128.928l-231.328 231.328zM866.336 652.8h-389.536l176.736 179.136c90.144-33.248 165.248-97.056 212.8-179.136zM512 857.6c8.672 0 17.152-0.768 25.696-1.312l-275.392-279.136-93.664 93.696c73.024 112.32 199.392 186.752 343.36 186.752zM157.664 243.2h389.472l-176.736-179.136c-90.112 33.28-165.184 97.056-212.736 179.136zM512 38.4c-8.64 0-17.088 0.768-25.568 1.28l272.448 276.224 94.304-94.336c-73.376-110.336-198.752-183.168-341.184-183.168z" />
<glyph unicode="&#xe62b;" glyph-name="places" d="M512 960c-226.208 0-409.6-183.392-409.6-409.6 0-304 409.6-614.4 409.6-614.4s409.6 309.504 409.6 614.4c0 226.208-183.424 409.6-409.6 409.6zM512 64.608c0 0-307.2 228.8-307.2 485.824 0 169.632 137.568 307.2 307.2 307.2 169.696 0 307.2-137.504 307.2-307.2 0-257.632-307.2-485.824-307.2-485.824zM512 652.8c56.512 0 102.4-45.888 102.4-102.4 0-56.576-45.92-102.4-102.4-102.4-56.544 0-102.4 45.824-102.4 102.4 0 56.512 45.856 102.4 102.4 102.4z" />
<glyph unicode="&#xe62c;" glyph-name="play-transcript" d="M347.136 775.744c109.888 0 219.808 0 329.696 0 0-25.248 0-50.528 0-75.808-109.92 0-219.808 0-329.696 0 0 25.312 0 50.592 0 75.808zM888.8 592.672c0 119.936 0 239.936 0 359.872-251.232 0-502.432 0-753.6 0 0-119.968 0-239.936 0-359.872-31.392 0-62.784 0-94.208 0 0-51.456 0-102.848 0-154.272 31.392 0 62.816 0 94.208 0 0-162.784 0-325.6 0-488.416 251.168 0 502.4 0 753.6 0 0 162.816 0 325.632 0 488.416 31.328 0 62.848 0 94.176 0 0 51.424 0 102.816 0 154.272-31.328 0-62.848 0-94.176 0zM818.112 27.104c-204.064 0-408.224 0-612.288 0 0 137.056 0 274.24 0 411.328 204.064 0 408.224 0 612.288 0 0-137.088 0-274.272 0-411.328zM818.112 592.672c-204.064 0-408.224 0-612.288 0 0 94.208 0 188.544 0 282.752 204.064 0 408.224 0 612.288 0 0-94.208 0-188.512 0-282.752zM347.136 371.552c109.888 0 219.808 0 329.696 0 0-25.216 0-50.496 0-75.776-109.92 0-219.808 0-329.696 0 0 25.28 0 50.56 0 75.776zM347.136 220.032c109.888 0 219.808 0 329.696 0 0-25.28 0-50.528 0-75.808-109.92 0-219.808 0-329.696 0 0 25.28 0 50.528 0 75.808z" />
<glyph unicode="&#xe62d;" glyph-name="play-video" d="M976 856c-307.008 0-614.080 0-921.088 0 0-226.24 0-452.512 0-678.816 120.128 0 240.288 0 360.416 0-13.344-46.144-26.688-92.352-40.032-138.496 93.44 0 186.848 0 280.288 0-13.344 46.144-26.688 92.352-40.032 138.496 120.128 0 240.32 0 360.448 0 0 226.304 0 452.576 0 678.816zM895.872 274.208c-253.568 0-507.264 0-760.864 0 0 166.176 0 332.448 0 498.656 253.6 0 507.296 0 760.864 0 0-166.208 0-332.48 0-498.656zM422.016 343.424l200.256 166.24-200.256 166.272v-332.512z" />
<glyph unicode="&#xe62e;" glyph-name="preview" d="M0 321.024c126.656 0 253.376 0 380 0 0-34.816 0-69.632 0-104.416-126.592 0-253.344 0-380 0 0 34.784 0 69.6 0 104.416zM0 487.968c126.656 0 253.376 0 380 0 0-34.816 0-69.664 0-104.288-126.592 0-253.344 0-380 0 0 34.624 0 69.472 0 104.288zM0 665.344c146.368 0 292.768 0 439.2 0 0-34.848 0-69.664 0-104.32-146.432 0-292.832 0-439.2 0 0 34.688 0 69.472 0 104.32zM0 842.656c228.704 0 457.472 0 686.24 0 0-34.784 0-69.504 0-104.288-228.768 0-457.536 0-686.24 0 0 34.784 0 69.504 0 104.288zM1012.16 122.848l-123.648 130.464c30.048 44.128 46.56 96.8 46.56 152.256 0 69.856-25.76 135.552-72.64 184.96-46.784 49.408-109.088 76.672-175.36 76.672-66.176 0-128.544-27.2-175.328-76.672-46.816-49.344-72.64-115.072-72.64-184.96s25.792-135.584 72.64-184.992c46.816-49.44 109.152-76.64 175.328-76.64 52.576 0 102.464 17.312 144.288 49.024l123.616-130.4c7.968-8.384 18.24-12.512 28.608-12.512s20.672 4.128 28.608 12.512c15.776 16.64 15.776 43.616-0.032 60.288zM568.896 280.832c-31.584 33.344-48.928 77.664-48.928 124.704s17.344 91.328 48.928 124.672c31.552 33.312 73.504 51.648 118.144 51.648s86.624-18.336 118.176-51.648c31.52-33.344 48.96-77.632 48.96-124.672s-17.376-91.328-48.96-124.704c-31.552-33.312-73.536-51.616-118.176-51.616-44.64 0.032-86.592 18.4-118.144 51.616z" />
<glyph unicode="&#xe62f;" glyph-name="search" d="M607.744 189.632l-47.040 47.040 188.256 188.256 47.040-47.040-188.256-188.256zM701.888 330.816l-47.040-47.040-94.144 94.112 47.040 47.040 94.144-94.112zM607.744 848.544c-129.984 129.952-340.672 129.952-470.624 0-129.984-129.984-129.984-340.672 0-470.688 129.984-129.952 340.672-129.952 470.624 0 129.984 129.952 129.984 340.672 0 470.688zM233.28 386.976c-17.344 10.656-34.048 22.88-49.056 37.952-104 104-104 272.544 0 376.512 15.040 15.040 31.744 27.296 49.056 37.984v-452.448zM560.704 424.896c-70.72-70.72-171.008-92.16-260.864-66.656v509.856c89.856 25.504 190.144 4.096 260.864-66.656 104-104 104-272.544 0-376.512zM984.256 142.528l-211.808 211.808c-26.016 25.952-68.16 25.952-94.112 0l-47.040-47.040c-25.952-26.016-25.952-68.16 0-94.112l211.808-211.808c26.016-26.016 68.16-26.016 94.112 0l47.040 47.040c26.016 25.952 26.016 68.096 0 94.112zM890.176 48.448l-211.808 211.776 47.040 47.040 211.776-211.808-47.008-47.008z" />
</font>
</defs>
</svg>
